<svg width="12" height="14" viewBox="0 0 12 14" fill="none" xmlns="http://www.w3.org/2000/svg">
<path d="M11.8498 5.60466L10.232 0.545734C10.2214 0.511883 10.2003 0.482315 10.1717 0.46141C10.1431 0.440505 10.1085 0.429373 10.073 0.429662H8.69089C8.61767 0.429662 8.55517 0.476091 8.53196 0.545734L6.9016 5.60466C6.89624 5.62073 6.89267 5.63859 6.89267 5.65645C6.89267 5.74752 6.96767 5.82252 7.05874 5.82252H8.06589C8.14089 5.82252 8.20517 5.77252 8.2266 5.70109L8.5391 4.60109H10.1284L10.4373 5.69931C10.457 5.77073 10.523 5.82073 10.598 5.82073H11.6909C11.7087 5.82073 11.7248 5.81895 11.7409 5.81359C11.7837 5.79931 11.8177 5.77073 11.8391 5.73145C11.8587 5.69216 11.8623 5.64752 11.8498 5.60466ZM8.7016 3.67073L9.28731 1.58323H9.39982L9.97303 3.67073H8.7016ZM11.2641 12.4725H8.94982V12.4654L11.3177 9.09216C11.3373 9.06359 11.348 9.03145 11.348 8.99574V8.34573C11.348 8.25466 11.273 8.17966 11.182 8.17966H7.5391C7.44803 8.17966 7.37303 8.25466 7.37303 8.34573V9.11359C7.37303 9.20466 7.44803 9.27966 7.5391 9.27966H9.72839V9.28681L7.3516 12.66C7.33176 12.6883 7.32116 12.7219 7.32124 12.7564V13.4065C7.32124 13.4975 7.39624 13.5725 7.48732 13.5725H11.2623C11.3534 13.5725 11.4284 13.4975 11.4284 13.4065V12.6386C11.4286 12.6169 11.4245 12.5953 11.4164 12.5752C11.4082 12.555 11.3962 12.5367 11.3809 12.5213C11.3656 12.5058 11.3474 12.4936 11.3274 12.4852C11.3073 12.4768 11.2858 12.4725 11.2641 12.4725ZM4.28553 10.3939H2.92839V0.929663C2.92839 0.851091 2.8641 0.786805 2.78553 0.786805H1.78553C1.70696 0.786805 1.64267 0.851091 1.64267 0.929663V10.3939H0.28553C0.165887 10.3939 0.0980301 10.5332 0.17303 10.6261L2.17303 13.16C2.18639 13.1771 2.20347 13.1909 2.22296 13.2004C2.24245 13.2099 2.26385 13.2148 2.28553 13.2148C2.30721 13.2148 2.32861 13.2099 2.3481 13.2004C2.36759 13.1909 2.38467 13.1771 2.39803 13.16L4.39803 10.6261C4.47124 10.5332 4.40517 10.3939 4.28553 10.3939Z" fill="white" fill-opacity="0.85"/>
</svg>
